<svg width="24" height="17" viewBox="0 0 24 17" fill="none" xmlns="http://www.w3.org/2000/svg">
<path d="M1.98333 1.97329H14.4028V10.0806H15.5448V1.40435C15.5448 1.11988 15.2593 0.835419 14.9738 0.835419H1.41233C1.12683 0.835419 0.841309 1.11988 0.841309 1.40435V10.0806H1.98333V1.97329Z" fill="#515E83"/>
<path d="M23.1106 7.66267L19.6845 4.53351C19.5418 4.39128 19.399 4.39128 19.2563 4.39128L16.6867 4.24904C16.544 4.24904 16.4012 4.24905 16.2585 4.39128C16.1157 4.53352 16.1157 4.67574 16.1157 4.81798V8.2316V12.3564H11.6904C11.2621 11.3608 10.1201 10.5074 8.97806 10.5074C7.69329 10.5074 6.69403 11.2185 6.26577 12.2142C5.83751 11.2185 4.6955 10.5074 3.55348 10.5074C1.9832 10.5074 0.555664 11.7875 0.555664 13.352C0.555664 14.9166 1.84045 16.1967 3.55348 16.1967C4.83825 16.1967 5.83751 15.4856 6.26577 14.3477C6.69403 15.3433 7.69329 16.1967 8.97806 16.1967C10.5483 16.1967 11.8331 15.0589 11.9759 13.6365H16.6867C16.8295 15.0589 18.1142 16.1967 19.6845 16.1967C21.2548 16.1967 22.6823 14.9166 22.6823 13.352C22.6823 13.2098 22.6823 12.9253 22.5396 12.7831H23.2533V8.65831C23.2533 8.65831 23.3961 8.51607 23.3961 8.37384C23.3961 8.08937 23.3961 7.8049 23.1106 7.66267ZM3.41072 14.7744C2.5542 14.7744 1.69769 14.0632 1.69769 13.2098C1.69769 12.3564 2.41145 11.6452 3.41072 11.6452C4.40999 11.6452 5.12375 12.3564 5.12375 13.2098C5.12375 14.0632 4.40999 14.7744 3.41072 14.7744ZM8.97806 14.7744C7.9788 14.7744 7.26504 14.0632 7.26504 13.2098C7.26504 12.3564 7.9788 11.6452 8.97806 11.6452C9.83458 11.6452 10.6911 12.3564 10.6911 13.2098C10.6911 14.0632 9.97733 14.7744 8.97806 14.7744ZM17.4005 7.52043V5.38692L18.9708 5.52915L20.9693 7.52043H17.4005ZM19.5418 14.9166C18.5425 14.9166 17.8287 14.2054 17.8287 13.2098C17.8287 12.2142 18.5425 11.503 19.5418 11.503C20.541 11.503 21.2548 12.2142 21.2548 13.2098C21.2548 14.2054 20.541 14.9166 19.5418 14.9166Z" fill="#515E83"/>
<path d="M8.83508 3.82234H7.55029V9.79618H8.83508V3.82234Z" fill="#515E83"/>
<path d="M12.1188 3.82234H10.834V9.79618H12.1188V3.82234Z" fill="#515E83"/>
<path d="M5.40928 3.82234H4.12451V9.79618H5.40928V3.82234Z" fill="#515E83"/>
</svg>
