<svg width="27" height="18" viewBox="0 0 27 18" fill="none" xmlns="http://www.w3.org/2000/svg">
<path d="M26.2527 13.6261V8.93243C26.2527 8.7902 26.2527 8.64794 26.1099 8.5057L22.8266 5.23433C22.6839 5.0921 22.5411 5.09209 22.3984 5.09209H20.1143V1.53623C20.1143 1.25176 19.8288 0.9673 19.5433 0.9673H7.8376C7.5521 0.9673 7.2666 1.25176 7.2666 1.53623V4.38092H8.40863V2.10516H18.8296V13.7684H14.6897C14.2615 12.6305 13.1195 11.7771 11.8347 11.7771C10.4072 11.7771 9.40789 12.6305 8.97963 13.7684H8.40863V10.6392H7.2666V14.3373C7.2666 14.6218 7.5521 14.9062 7.8376 14.9062H8.97963C8.97963 16.6131 10.2644 17.7509 11.9774 17.7509C13.6905 17.7509 14.8325 16.6131 14.9752 14.9062H19.2578C19.2578 16.6131 20.5426 17.7509 22.2556 17.7509C23.9687 17.7509 25.2534 16.4709 25.2534 14.764H26.9665V13.6261H26.2527ZM13.976 14.764C13.976 15.9019 13.2622 16.6131 12.1202 16.6131C10.9782 16.6131 10.2644 15.7597 10.2644 14.764V14.6218V14.4796C10.4071 13.4839 11.2637 12.915 12.2629 12.915C13.2622 12.915 13.976 13.4839 14.1187 14.3373V14.764H13.976ZM20.6853 6.08774H21.5419L24.2542 8.79019V9.6436H20.6853V6.08774ZM20.2571 10.7815H24.9679C24.9679 10.7815 24.9679 10.7815 25.1107 10.7815V13.6261H24.9679C24.3969 12.4883 23.3976 11.7771 22.1129 11.7771H21.9701C21.3991 11.7771 20.8281 11.9193 20.2571 12.346V10.7815ZM24.1114 14.764C24.1114 15.9019 23.3977 16.6131 22.2556 16.6131C21.1136 16.6131 20.3998 15.7597 20.3998 14.764C20.3998 14.6218 20.3998 14.1951 20.3998 14.1951C20.3998 14.1951 20.3999 14.0529 20.5426 14.0529C20.8281 13.3417 21.5419 12.915 22.2556 12.915C23.3977 12.915 23.8259 13.9106 24.1114 14.3373C24.1114 14.4796 24.2542 14.4796 24.2542 14.4796V14.764H24.1114Z" fill="#515E83"/>
<path d="M25.1107 10.7815H20.3999V12.2038C20.8282 11.9193 21.5419 11.6349 22.1129 11.6349H22.2557C23.3977 11.6349 24.397 12.346 25.1107 13.4839H25.2535L25.1107 10.7815Z" fill="white"/>
<path d="M11.2637 5.80327H2.84131V6.94117H11.2637V5.80327Z" fill="#515E83"/>
<path d="M13.1192 7.2256H4.69678V8.3635H13.1192V7.2256Z" fill="#515E83"/>
<path d="M9.40777 8.93243H0.985352V10.0703H9.40777V8.93243Z" fill="#515E83"/>
</svg>
