<svg width="22" height="19" viewBox="0 0 22 19" fill="none" xmlns="http://www.w3.org/2000/svg">
<path d="M18.8272 7.7651V7.33841C18.8272 3.78255 15.9721 0.937866 12.4033 0.937866H8.83451C5.26569 0.937866 2.5534 3.78255 2.5534 7.33841V7.90734C1.26863 8.47628 0.412109 9.75638 0.412109 11.321V18.1482H2.41064V16.4414H19.6837V18.1482H21.6822V11.321C21.5395 9.61414 20.3975 8.1918 18.8272 7.7651ZM4.40917 7.33841C4.40917 4.92043 6.40771 2.92914 8.83451 2.92914H12.4033C14.8301 2.92914 16.8287 4.92043 16.8287 7.33841V7.62285H4.40917V7.33841ZM19.541 14.4501H2.26788V11.321C2.26788 10.3253 3.12441 9.61417 3.98093 9.61417H17.6852C18.6844 9.61417 19.3982 10.3253 19.3982 11.321V14.4501H19.541Z" fill="#515E83"/>
<path d="M6.55047 10.6098H4.40918V12.7433H6.55047V10.6098Z" fill="#515E83"/>
<path d="M17.3996 10.6098H15.2583V12.7433H17.3996V10.6098Z" fill="#515E83"/>
</svg>
