<svg width="101" height="18" viewBox="0 0 101 18" fill="none" xmlns="http://www.w3.org/2000/svg">
<mask id="mask0_6795_92" style="mask-type:luminance" maskUnits="userSpaceOnUse" x="23" y="2" width="78" height="14">
<path d="M101 2.11499H23.3862V15.93H101V2.11499Z" fill="white"/>
</mask>
<g mask="url(#mask0_6795_92)">
<path d="M58.8069 15.75H60.366V6.83999H62.5584C63.4842 6.83999 63.8739 7.55999 63.8739 8.23499V15.75H65.433V8.23499C65.433 7.60499 65.8228 6.83999 66.7485 6.83999H67.4306C67.6742 6.83999 67.9178 6.88499 68.1614 6.97499C68.6486 7.10999 68.941 7.51499 68.941 8.23499V15.75H70.5001V8.23499C70.5001 6.83999 69.4282 5.62499 67.9178 5.62499H67.0408C66.7972 5.66999 66.5049 5.66999 66.2613 5.71499C65.7741 5.80499 65.3843 6.02999 64.9945 6.43499L64.7509 6.70499L64.5073 6.43499C64.2637 6.16499 63.9226 5.98499 63.5816 5.84999C63.2405 5.71499 62.8508 5.62499 62.5097 5.66999H58.7582L58.8069 15.75ZM44.3853 15.75H45.9444V6.83999H48.4292C49.3549 6.83999 49.7446 7.55999 49.7446 8.23499V15.75H51.3037V8.23499C51.3037 6.74999 50.1831 5.62499 48.5753 5.62499H44.3365V15.75H44.3853ZM54.2758 15.75H55.8349V5.62499H54.2758V15.75ZM73.4721 13.005C73.4721 15.255 74.6901 15.75 77.1262 15.75C79.5136 15.75 80.7803 15.21 80.7803 13.005V8.23499C80.7803 6.83999 79.7085 5.62499 78.1981 5.62499H76.1031C74.5927 5.62499 73.5208 6.83999 73.5208 8.23499L73.4721 13.005ZM76.3954 14.49C76.1518 14.49 75.9569 14.445 75.7133 14.355C75.2261 14.13 75.0312 13.725 75.0312 13.14V8.23499C75.0312 7.60499 75.421 6.83999 76.3467 6.83999H77.857C78.7828 6.83999 79.1725 7.55999 79.1725 8.23499V13.14C79.1725 13.77 78.9289 14.13 78.4904 14.355C78.2955 14.445 78.0519 14.49 77.8083 14.49C77.3698 14.535 76.8826 14.535 76.3954 14.49ZM89.2092 15.03L89.3554 15.84L90.7683 15.615C90.6708 14.94 90.6708 14.22 90.6708 13.545V2.11499H89.1117V5.62499H86.1397C84.6294 5.62499 83.5575 6.83999 83.5575 8.23499V13.14C83.5575 14.535 84.5319 15.75 85.9936 15.75C86.968 15.75 87.9424 15.57 88.8681 15.21L89.2092 15.03ZM89.063 14.04L88.8194 14.085C88.0399 14.31 87.2116 14.49 86.3833 14.49C85.3115 14.49 85.0679 13.545 85.0679 12.96V8.23499C85.0679 7.60499 85.4576 6.83999 86.3833 6.83999H89.063V14.04ZM40.1465 15.075L40.2926 15.885L41.7056 15.66C41.4132 13.185 41.3645 10.71 41.2184 8.27999C41.1696 6.83999 40.1952 5.62499 38.6361 5.62499H34.3973V13.14C34.3973 14.535 35.3718 15.75 36.8334 15.75C37.8078 15.75 38.7823 15.615 39.6593 15.21L40.1465 15.075ZM40.0003 14.085L39.7567 14.13C38.9772 14.355 38.1976 14.49 37.3693 14.49C36.3462 14.49 36.0539 13.5 36.0539 12.96V6.83999H38.4412C39.3182 6.83999 39.708 7.64999 39.7567 8.23499L40.0003 14.085ZM28.8431 8.68499L29.9149 8.32499C30.5483 8.14499 30.8406 7.55999 30.8406 6.88499V4.72499C30.8406 3.32999 29.7688 2.11499 28.2584 2.11499H23.3862V13.005C23.3862 15.48 25.0428 15.75 27.625 15.75C30.2073 15.75 31.8638 15.435 31.8638 13.005V11.025C31.8638 10.035 31.0355 9.13499 29.9637 8.90999L28.8431 8.68499ZM24.9453 9.89999H28.9405C29.8662 9.89999 30.256 10.62 30.256 11.295V13.275C30.256 14.04 29.6713 14.355 29.1354 14.445C28.8431 14.49 28.5994 14.535 28.3071 14.49H26.8942C26.6019 14.49 26.3583 14.49 26.1146 14.445C25.53 14.355 24.994 14.04 24.994 13.275L24.9453 9.89999ZM24.9453 8.68499V3.28499L27.9173 3.32999C28.8431 3.32999 29.2328 4.09499 29.2328 4.72499V7.33499C29.2328 7.96499 28.8431 8.72999 27.9173 8.72999H24.9453V8.68499ZM95.2994 12.24H100.513V5.62499H96.2738C94.7635 5.62499 93.6916 6.83999 93.6916 8.23499V12.825C93.6916 14.895 94.7147 15.885 97.0047 15.885C98.3201 15.885 99.6356 15.84 100.951 15.75V14.535C99.6356 14.58 98.3201 14.67 97.0047 14.67C96.0302 14.67 95.2507 14.13 95.2507 13.14L95.2994 12.24ZM95.2994 11.16V8.23499C95.2994 7.60499 95.6892 6.83999 96.6149 6.83999H99.0022V11.115L95.2994 11.16ZM54.1783 3.46499H55.9323V2.11499H54.1783V3.46499Z" fill="#101010"/>
</g>
<mask id="mask1_6795_92" style="mask-type:luminance" maskUnits="userSpaceOnUse" x="0" y="0" width="20" height="18">
<path d="M19.4887 0H0V18H19.4887V0Z" fill="white"/>
</mask>
<g mask="url(#mask1_6795_92)">
<path fill-rule="evenodd" clip-rule="evenodd" d="M19.4399 6.16502C19.3425 5.62502 19.0989 5.13002 18.7091 4.72502C18.3193 4.32002 17.8321 4.00502 17.2962 3.82502L11.4496 1.84502L7.69802 0.585022L8.42885 4.54502C8.96478 4.54502 9.54945 4.68002 10.0367 4.90502C10.5239 5.13002 10.9624 5.44502 11.3521 5.85002C12.7651 7.42502 12.4727 9.63002 10.8162 10.935L6.5287 14.22C6.33382 14.355 6.13893 14.4 5.89532 14.4C5.70043 14.4 5.45683 14.265 5.35938 14.13C5.26194 13.995 5.1645 13.815 5.1645 13.68L3.21563 3.28502C3.21563 3.19502 3.16691 3.06002 3.21563 2.97002C3.21563 2.88002 3.26435 2.79002 3.36179 2.70002C3.41052 2.61002 3.50796 2.56502 3.6054 2.47502C3.70285 2.38502 3.80029 2.38502 3.89773 2.38502C3.99518 2.38502 4.14134 2.38502 4.23878 2.38502C4.28751 2.38502 4.38495 2.43002 4.48239 2.52002C4.57984 2.56502 4.62856 2.65502 4.726 2.74502C4.82344 2.83502 4.82344 2.92502 4.82344 3.01502L6.57742 12.24L9.79305 9.76502C10.7675 9.00002 10.9624 7.74002 10.1341 6.79502C9.79305 6.39002 9.30584 6.16502 8.72118 6.07502C8.18524 5.98502 7.60058 6.12002 7.16208 6.39002C6.82103 4.72502 6.5287 3.06002 6.18765 1.35002L4.43367 0.810022C3.89773 0.630022 3.31307 0.585022 2.72841 0.675022C2.14375 0.765022 1.60781 0.990022 1.16932 1.35002C0.730825 1.66502 0.389773 2.11502 0.194887 2.61002C0 3.10502 -0.0487217 3.64502 0.0487217 4.18502L1.1206 9.85502L2.19247 15.525C2.28992 16.065 2.53353 16.56 2.9233 16.965C3.31307 17.37 3.80029 17.685 4.33623 17.865C4.87217 18.045 5.45683 18.09 6.04149 18C6.62614 17.91 7.16208 17.685 7.60058 17.325L9.69561 15.705L13.5446 12.735L16.6141 10.35L17.15 9.94502L18.3193 9.04502C18.7578 8.73002 19.0989 8.28002 19.2938 7.78502C19.4887 7.20002 19.5374 6.66002 19.4399 6.16502Z" fill="#19B16A"/>
<path fill-rule="evenodd" clip-rule="evenodd" d="M5.89551 0C5.99295 0.495 6.09039 0.9 6.13912 1.395L5.89551 0Z" fill="white"/>
</g>
</svg>
