<svg width="70" height="18" viewBox="0 0 70 18" fill="none" xmlns="http://www.w3.org/2000/svg">
<path d="M10.6979 3.80052H3.04144C1.36219 3.81218 0 5.15285 0 6.81995V12.2176C0 13.8264 1.31522 15.1321 2.93575 15.1321H9.8876V17.9883H12.6002L12.6237 5.71244C12.612 4.65156 11.7547 3.80052 10.6979 3.80052ZM9.8876 13.3601H3.91042C3.21758 13.3601 2.64217 12.8005 2.64217 12.101V7.08809C2.64217 6.28368 3.29978 5.61917 4.12179 5.61917H9.03036C9.50008 5.61917 9.8876 6.00389 9.8876 6.47021V13.3601Z" fill="#1D2B50"/>
<path d="M22.2412 3.82384H17.5323V3.29922H14.9254V4.75648C14.9254 5.19948 15.2894 5.56088 15.7356 5.56088H21.0787C21.2196 5.56088 21.3488 5.65415 21.3488 5.75907V13.0803C21.3488 13.2435 21.1844 13.3718 20.9847 13.3718H13.9507V15.1671H22.0768C23.1454 15.1671 24.0262 14.3744 24.0262 13.3951V5.4443C24.0144 4.55829 23.2159 3.82384 22.2412 3.82384Z" fill="#1D2B50"/>
<path d="M52.3975 5.59586C52.3975 4.61658 51.5285 3.82384 50.4481 3.82384H43.2027C42.4159 3.82384 41.7114 4.31348 41.453 5.05959C41.453 5.05959 39.856 9.60622 39.5624 10.4806C39.2688 11.32 39.715 12.2409 40.5723 12.5324C40.7015 12.579 40.8424 12.6023 40.9715 12.614L48.0408 13.4301H38.94V13.4067H37.5661V5.71244C37.5661 4.65156 36.7088 3.80052 35.6402 3.80052H27.9955C26.3163 3.80052 24.9541 5.15285 24.9541 6.81995V12.2176C24.9541 13.8264 26.2693 15.1321 27.8899 15.1321H34.83V17.9883H37.5426V15.1554H52.4092L52.3975 5.59586ZM34.83 13.3601H28.8528C28.1599 13.3601 27.5963 12.8005 27.5845 12.101V7.08809C27.5845 6.28368 28.2421 5.61917 29.0642 5.61917H33.9727C34.4424 5.61917 34.83 6.00389 34.83 6.47021V13.3601ZM49.7201 12.2759L42.3925 11.32C42.3572 11.32 42.322 11.2966 42.2985 11.2617C42.275 11.2267 42.275 11.1801 42.2868 11.1451C42.6156 10.1775 43.0501 8.94171 43.4023 7.92746C43.6959 7.08809 43.9308 6.40026 44.0247 6.12047C44.1422 5.79405 44.4357 5.54923 44.7411 5.54923H45.0816H49.3678C49.5674 5.54923 49.7318 5.67746 49.7318 5.84068L49.7201 12.2759Z" fill="#1D2B50"/>
<path d="M46.8193 2.79793C47.5976 2.79793 48.2285 2.17159 48.2285 1.39896C48.2285 0.626337 47.5976 0 46.8193 0C46.0411 0 45.4102 0.626337 45.4102 1.39896C45.4102 2.17159 46.0411 2.79793 46.8193 2.79793Z" fill="#1D2B50"/>
<path d="M63.1071 2.8329C61.3339 3.9987 60.0422 5.47927 59.2319 7.27461C58.6213 6.00389 57.5526 5.24611 56.1905 4.79145L56.1787 13.5117C56.1787 14.5026 56.9185 15.342 57.9049 15.4702L63.0836 16.1347L68.274 15.4702C69.2604 15.342 70.0002 14.5026 70.0002 13.5117V12.0194C68.9668 8.72021 66.8414 5.3044 63.1071 2.8329Z" fill="#D7B987"/>
<path d="M69.9998 10.9819L70.0115 4.80312C69.0016 5.1412 68.1326 5.65415 67.5103 6.41192C68.5671 7.79923 69.4009 9.33809 69.9998 10.9819Z" fill="#1D2B50"/>
</svg>
