<svg width="89" height="53" viewBox="0 0 89 53" fill="none" xmlns="http://www.w3.org/2000/svg">
<path d="M42.3486 10.1837V31.1934H45.7256V23.4185H50.3281C53.0792 23.4185 55.3088 21.1302 55.3088 18.3066V10.1837H42.3486ZM51.9188 19.8188H45.7256V13.4623H51.9188V19.8188Z" fill="#1995B3"/>
<path d="M36.0902 13.1947V19.5511H41.3446V23.1509H37.6809C34.9298 23.1509 32.7002 20.8625 32.7002 18.0523V9.92944H41.3316V13.208H36.0902V13.1947Z" fill="#BD2D3B"/>
<path d="M47.1205 3.46594H40.9272V8.85888H37.4199V5.11192C37.4199 2.28832 39.6495 0 42.3875 0H50.3018V8.85888H47.1074V3.46594H47.1205Z" fill="#DFA217"/>
<path d="M89.0002 44.455V40.0524H86.7968V45.4453H80.7469V36.1582H78.5435V47.7202C78.5435 47.7202 82.7679 47.7069 85.845 47.7069C87.5791 47.7069 89.0002 46.2482 89.0002 44.455Z" fill="#92939B"/>
<path d="M77.2657 40.0658V44.455C77.2657 46.2482 75.8445 47.7069 74.0974 47.7069H72.624V45.4587H75.0622V40.0524H77.2657V40.0658Z" fill="#92939B"/>
<path d="M10.6654 40.0658V44.455C10.6654 46.2482 9.25725 47.7069 7.51011 47.7069H7.49707H0V45.4587H8.44887V40.0524H10.6654V40.0658Z" fill="#92939B"/>
<path d="M71.2549 36.0645H69.1558V47.6533H71.2549V36.0645Z" fill="#92939B"/>
<path d="M59.5855 36.0645H57.4863V47.6533H59.5855V36.0645Z" fill="#92939B"/>
<path d="M27.9414 47.7068C29.6885 47.7068 31.1097 46.2482 31.1097 44.455V40.0523H28.9062V40.0657H25.6988V38.326H23.5344V40.0523H21.2397C19.4925 40.0523 18.0713 41.5109 18.0713 43.3041V45.4586H14.212V36.0645H12.1128V47.6533C12.1649 47.6131 27.9414 47.7068 27.9414 47.7068ZM20.2748 42.3138H23.5344V45.472H20.2748V42.3138ZM28.9062 45.4586H25.6988V42.0997H28.9062V45.4586Z" fill="#92939B"/>
<path d="M53.9004 40.0658V45.4587H47.8115V40.0791H45.7123V45.4587H42.3354V40.0791H40.2362V45.4587H36.8593V40.0791H34.7601V45.4587H32.4653V47.7069H52.9356C54.6827 47.7069 56.1039 46.2482 56.1039 44.455V40.0524H53.9004V40.0658Z" fill="#92939B"/>
<path d="M65.6091 40.0657V40.0791H63.0014V42.0997H65.6091V45.4586H60.8892V47.7068H64.6573C66.4044 47.7068 67.8256 46.2482 67.8256 44.455V40.0657H65.6091Z" fill="#92939B"/>
<path d="M10.7696 49.9684H8.67041V52.1229H10.7696V49.9684Z" fill="#92939B"/>
<path d="M56.0128 49.9684H51.1104V52.1229H56.0128V49.9684Z" fill="#92939B"/>
</svg>
