<svg width="84" height="41" viewBox="0 0 84 41" fill="none" xmlns="http://www.w3.org/2000/svg">
<path d="M38.5798 30.5436H0V31.0939H38.5798V30.5436Z" fill="#E8891D"/>
<path fill-rule="evenodd" clip-rule="evenodd" d="M63.6158 0C74.8341 0 84.0002 9.21812 84.0002 20.5C84.0002 31.7819 74.8341 41 63.6158 41C52.3976 41 43.2314 31.7819 43.2314 20.5C43.2314 9.21812 52.2608 0 63.6158 0Z" fill="#1FA4A4"/>
<path fill-rule="evenodd" clip-rule="evenodd" d="M61.5637 35.084L64.4367 32.3323C69.2249 35.4967 68.8145 34.8088 64.4367 38.7987C63.6158 37.4229 62.6582 36.735 61.1533 35.9095C60.6061 36.5974 59.6484 37.2853 58.1435 38.7987C57.1859 37.2853 56.2282 36.5974 54.4497 35.7719L58.0067 32.3323C60.3324 33.8457 61.4269 34.396 61.5637 35.084Z" fill="#FEFEFE"/>
<path fill-rule="evenodd" clip-rule="evenodd" d="M77.5702 10.0437C74.6973 12.245 71.8243 15.6846 70.4562 18.5739C84.0002 17.3356 80.9904 28.8927 72.9188 32.3323C67.036 34.5336 62.3846 30.6813 62.795 24.3524C62.795 23.6645 62.9318 23.1141 62.9318 22.5638C61.9741 25.0403 60.6061 27.3792 58.8276 29.7182C54.7233 34.8088 54.4497 33.4329 49.6614 29.5806C52.5344 27.3792 55.4074 23.9396 56.7754 21.0504C43.2315 22.2886 46.2412 10.7316 54.3129 7.292C60.1956 5.09066 64.8471 8.94301 64.4367 15.2719C64.4367 15.9598 64.2999 16.5101 64.2999 17.0605C65.2575 14.5839 66.6256 12.245 68.4041 9.90609C72.5083 4.81549 72.782 6.32891 77.5702 10.0437Z" fill="#FEFEFE"/>
<path fill-rule="evenodd" clip-rule="evenodd" d="M61.8374 5.64089L65.3944 2.20129C70.1827 5.36572 69.7723 4.6778 65.3944 8.66774C64.5736 7.15431 63.6159 6.46639 61.8374 5.64089Z" fill="#FEFEFE"/>
<path fill-rule="evenodd" clip-rule="evenodd" d="M58.9641 16.7852C43.5048 18.0235 64.1628 3.98992 58.9641 16.7852V16.7852Z" fill="#1FA4A4"/>
<path fill-rule="evenodd" clip-rule="evenodd" d="M68.1303 22.8389C63.0684 35.6342 83.7264 21.4631 68.1303 22.8389V22.8389Z" fill="#1FA4A4"/>
<path fill-rule="evenodd" clip-rule="evenodd" d="M1.09424 32.8825C1.23105 33.0201 1.23105 33.0201 1.36785 33.0201C1.36785 33.0201 1.50466 33.0201 1.64147 33.0201C1.77828 33.0201 1.77828 33.0201 1.91509 33.0201C2.05189 33.0201 2.05189 32.8825 2.1887 32.8825C2.1887 32.8825 2.1887 32.8825 2.32551 32.8825C2.46232 32.7449 2.46232 32.3322 2.59912 32.3322H3.41997L1.23105 37.1476C1.23105 37.1476 1.23105 37.1476 1.23105 37.2852V37.4228C1.23105 37.5604 1.36785 37.698 1.64147 37.698H4.10401C4.24082 37.698 4.51443 37.698 4.65124 37.5604C4.92486 37.5604 5.19847 37.4228 5.33528 37.2852C5.47209 37.1476 5.47209 37.01 5.6089 36.8725C5.6089 36.7349 5.47209 36.5973 5.33528 36.4597C5.19847 36.4597 5.19847 36.4597 5.06167 36.4597C4.92486 36.4597 4.92486 36.4597 4.78805 36.4597C4.51443 36.4597 4.37763 36.5973 4.24082 36.8725C4.24082 36.8725 4.24082 36.8725 4.24082 37.01V37.1476C4.10401 37.01 3.83039 37.1476 3.69359 37.1476H3.14636V37.01L5.06167 32.3322V32.1946V32.057C5.06167 31.9194 4.92486 31.7819 4.78805 31.7819H2.46232C2.05189 31.7819 1.77828 31.9194 1.36785 32.057L1.23105 32.1946C1.09424 32.4698 1.09424 32.7449 1.09424 32.8825ZM32.6968 35.359C32.6968 36.047 32.9705 36.5973 33.3809 37.1476C34.2017 38.1107 35.7066 38.1107 36.6643 37.2852C36.6643 37.2852 36.8011 37.2852 36.8011 37.1476C37.2115 36.7349 37.4851 36.047 37.4851 35.359C37.4851 34.6711 37.2115 34.1208 36.8011 33.5704C35.9802 32.6074 34.4753 32.6074 33.6545 33.4329L33.5177 33.5704C32.9705 33.9832 32.6968 34.6711 32.6968 35.359ZM35.433 36.8725C35.5698 37.01 35.5698 37.01 35.5698 37.1476C35.5698 37.2852 35.433 37.4228 35.1594 37.4228C35.0226 37.4228 35.0226 37.4228 34.8858 37.2852C34.749 37.2852 34.749 37.1476 34.749 37.1476V33.8456C34.749 33.8456 34.749 33.8456 34.749 33.708C34.749 33.5705 34.8858 33.4329 35.1594 33.4329C35.433 33.4329 35.5698 33.5705 35.5698 33.708L35.433 36.8725ZM29.003 31.9194C28.8662 31.9194 28.7294 31.9194 28.7294 31.9194H28.319C28.0454 31.9194 28.0454 32.057 28.0454 32.1946C28.0454 32.3322 28.1822 32.4698 28.319 32.4698H28.4558V37.1476H28.319C28.1822 37.1476 28.0454 37.2852 28.0454 37.4228C28.0454 37.5604 28.1822 37.698 28.319 37.698H29.2766C29.4135 37.698 29.5503 37.5604 29.5503 37.4228C29.5503 37.2852 29.4135 37.1476 29.2766 37.1476H29.1398V35.2215C29.1398 35.2215 29.1398 35.2215 29.2766 35.2215L31.6024 37.4228C31.876 37.698 32.0128 37.698 32.2864 37.698C32.56 37.698 32.56 37.5604 32.56 37.4228C32.56 37.2852 32.56 37.1476 32.2864 37.1476H32.1496V34.6711C32.1496 34.5335 32.1496 34.396 32.1496 34.2584C32.1496 34.1208 32.1496 33.8456 32.2864 33.708C32.2864 33.4329 32.2864 33.2953 32.4232 33.1577C32.4232 33.0201 32.4232 32.8825 32.4232 32.7449C32.4232 32.6074 32.4232 32.4698 32.4232 32.4698V32.3322C32.2864 31.9194 32.0128 31.7819 31.6024 31.7819C31.4656 31.7819 31.192 31.7819 31.0552 31.9194C30.9183 31.9194 30.7815 32.1946 30.7815 32.3322V32.4698V32.6074C30.7815 32.7449 30.9183 32.7449 30.9183 32.8825L31.0552 33.0201L31.192 33.1577L31.3288 33.2953C31.4656 33.4329 31.6024 33.708 31.6024 33.9832C31.6024 34.1208 31.6024 34.1208 31.6024 34.2584C31.6024 34.396 31.4656 34.5335 31.3288 34.5335C31.3288 34.5335 31.3288 34.5335 31.192 34.5335C31.0552 34.5335 30.9183 34.396 30.9183 34.2584C30.9183 34.1208 30.9183 33.9832 30.7815 33.8456L29.9607 32.8825L29.5503 32.3322L29.2766 32.057C29.2766 32.057 29.1398 31.9194 29.003 31.9194ZM27.4981 37.4228C27.4981 37.2852 27.3613 37.1476 27.2245 37.1476H27.0877V34.396C27.0877 33.9832 26.8141 33.5705 26.5405 33.2953C26.1301 33.0201 25.7196 32.8825 25.1724 32.8825C25.0356 32.8825 25.0356 32.8825 24.8988 32.8825C24.4884 32.8825 24.2148 33.0201 23.8043 33.1577C23.5307 33.2953 23.2571 33.5705 23.2571 33.8456V33.9832C23.2571 34.2584 23.3939 34.396 23.6675 34.396H23.8043C24.078 34.396 24.2148 34.396 24.3516 34.2584C24.4884 34.1208 24.4884 33.9832 24.4884 33.8456C24.4884 33.708 24.6252 33.5704 24.6252 33.5704C24.6252 33.4329 24.762 33.4329 25.0356 33.4329H25.1724C25.3092 33.4329 25.5828 33.5705 25.5828 33.708C25.5828 33.708 25.5828 33.708 25.5828 33.8456C25.5828 34.2584 25.3092 34.396 24.762 34.6711C24.6252 34.6711 24.4884 34.8087 24.3516 34.8087C23.8043 34.9463 23.3939 35.2215 23.2571 35.4966C23.1203 35.7718 22.9835 36.1845 22.9835 36.5973C22.9835 36.7349 22.9835 36.7349 22.9835 36.8725C22.9835 37.2852 23.2571 37.5604 23.5307 37.8356C23.8043 38.1107 24.2148 38.2483 24.6252 38.2483C25.0356 38.2483 25.3092 38.1107 25.5828 37.8356C25.7196 37.9731 26.1301 38.1107 26.5405 38.1107C26.6773 38.1107 26.8141 38.1107 26.9509 38.1107C27.0877 38.1107 27.2245 38.1107 27.3613 38.1107C27.3613 37.5604 27.4981 37.5604 27.4981 37.4228ZM25.5828 36.7349C25.5828 36.8725 25.3092 37.01 25.1724 37.01C25.0356 37.01 24.6252 36.8725 24.6252 36.7349V34.9463C24.6252 34.6711 24.8988 34.6711 25.0356 34.6711C25.3092 34.6711 25.446 34.8087 25.446 34.9463C25.446 34.9463 25.446 35.0839 25.3092 35.0839L25.1724 35.2215V36.4597C25.3092 36.4597 25.446 36.5973 25.5828 36.7349ZM22.4363 37.4228C22.4363 37.2852 22.2995 37.1476 22.1626 37.1476V33.708C22.1626 33.4329 22.0258 33.1577 21.7522 33.0201C21.4786 32.8825 21.205 32.7449 20.9314 32.7449H20.7946C20.3841 32.7449 19.8369 32.8825 19.5633 33.2953C19.2897 32.8825 18.8793 32.7449 18.332 32.7449C17.9216 32.7449 17.5112 32.8825 17.2376 33.1577C17.2376 32.8825 17.1008 32.8825 16.8271 32.8825H15.3223C15.1854 32.8825 15.0486 33.0201 15.0486 33.0201C15.0486 33.0201 15.1854 33.2953 15.3223 33.2953H15.4591V37.1476H15.3223C15.1854 37.1476 15.0486 37.2852 15.0486 37.4228C15.0486 37.5604 15.1854 37.698 15.3223 37.698H17.2376C17.3744 37.698 17.5112 37.5604 17.5112 37.4228C17.5112 37.2852 17.3744 37.1476 17.2376 37.1476H17.1008V33.8456C17.1008 33.708 17.2376 33.5704 17.3744 33.5704C17.5112 33.5704 17.648 33.708 17.648 33.8456V37.1476C17.648 37.4228 17.7848 37.698 18.0584 37.698H19.4265C19.5633 37.698 19.7001 37.5604 19.7001 37.4228C19.7001 37.2852 19.8369 37.1476 19.7001 37.1476H19.5633V33.9832C19.5633 33.708 19.7001 33.708 19.9737 33.708C20.1105 33.708 20.3841 33.8456 20.3841 33.9832V37.1476C20.3841 37.4228 20.5209 37.698 20.7946 37.698H22.1626C22.2995 37.5604 22.4363 37.5604 22.4363 37.4228ZM14.6382 34.396C14.6382 33.9832 14.5014 33.5705 14.2278 33.2953C13.9542 33.0201 13.4069 32.8825 12.7229 32.8825H12.5861C12.0389 32.8825 11.4916 33.1577 11.0812 33.5704C10.6708 33.9832 10.534 34.5335 10.534 35.359C10.534 36.1845 10.8076 36.8725 11.218 37.2852C11.6284 37.698 12.3125 37.8356 12.8597 37.8356C13.4069 37.8356 13.8174 37.698 14.2278 37.2852C14.3646 37.1476 14.3646 37.01 14.3646 36.8725C14.3646 36.5973 14.091 36.4597 13.8174 36.4597C13.5438 36.4597 13.2701 36.7349 13.2701 36.8725V37.01V37.1476C13.2701 37.2852 13.1333 37.4228 12.8597 37.4228C12.7229 37.4228 12.5861 37.4228 12.5861 37.2852L12.4493 37.1476V34.5335H14.3646C14.5014 34.5335 14.6382 34.396 14.6382 34.396ZM12.5861 34.2584V33.8456C12.5861 33.5705 12.8597 33.2953 13.1333 33.2953C13.4069 33.2953 13.6806 33.5705 13.6806 33.8456V34.2584H12.5861ZM10.1236 34.396C10.1236 33.9832 9.98675 33.5705 9.71313 33.2953C9.43952 33.0201 8.89228 32.8825 8.20824 32.8825H8.07144C7.52421 32.8825 6.97697 33.1577 6.56655 33.5704C6.15613 33.9832 6.01932 34.5335 6.01932 35.359C6.01932 36.1845 6.29294 36.8725 6.70336 37.2852C7.11378 37.698 7.79782 37.8356 8.34505 37.8356C8.89228 37.8356 9.30271 37.698 9.71313 37.2852C9.84994 37.1476 9.84994 37.01 9.84994 36.8725C9.84994 36.5973 9.57632 36.4597 9.30271 36.4597C9.02909 36.4597 8.75548 36.7349 8.75548 36.8725V37.01V37.1476C8.75548 37.2852 8.61867 37.4228 8.34505 37.4228C8.20824 37.4228 8.07144 37.4228 8.07144 37.2852L7.93463 37.1476V34.5335L10.1236 34.396ZM7.93463 34.2584V33.8456C7.93463 33.5705 8.20824 33.2953 8.48186 33.2953C8.75548 33.2953 9.02909 33.5705 9.02909 33.8456V34.2584H7.93463Z" fill="#056979"/>
<path d="M2.59957 22.1509C3.55723 21.463 4.37807 20.6375 5.06211 19.812C5.60934 19.2617 6.01977 18.5738 6.43019 17.8858C4.37807 17.8858 3.01 17.4731 2.18915 16.7852C1.64192 16.2348 1.23149 15.6845 1.09469 14.859C0.957878 14.0335 1.09469 13.3456 1.3683 12.6577C2.05234 11.0067 3.55723 9.35564 5.47254 8.53014C6.567 8.11739 7.52465 7.97981 8.48231 8.11739C9.30315 8.25497 9.98719 8.53014 10.6712 9.08048C11.3553 9.63081 11.7657 10.3187 12.0393 11.0067C12.4497 11.9697 12.5865 12.9328 12.4497 14.1711H17.3748L17.1012 14.859C16.9644 15.2718 16.6908 15.8221 16.4172 16.2348C16.1435 16.6476 16.0067 17.1979 15.7331 17.6107L15.5963 17.8858C14.2282 17.8858 12.997 17.8858 11.6289 17.8858C11.3553 18.7113 10.9448 19.6744 10.5344 20.4999C10.124 21.1879 9.57677 22.0134 8.89273 22.8389C6.29338 25.8657 6.01977 25.5905 3.96765 23.9395C3.55723 23.6644 3.1468 23.2516 2.59957 22.9765L2.05234 22.5637L2.59957 22.1509ZM5.74615 20.3624C5.06211 21.1879 4.37807 21.8758 3.55723 22.5637C3.83084 22.8389 4.10446 23.114 4.37807 23.2516C5.88296 24.4899 6.15658 24.6275 8.07188 22.2885C8.75592 21.6006 9.16635 20.7751 9.71358 19.812C10.124 18.9865 10.5344 18.0234 10.9448 17.0603L11.0817 16.7852C12.4497 16.7852 13.8178 16.7852 15.0491 16.7852C15.1859 16.3724 15.4595 16.0973 15.5963 15.8221C15.7331 15.5469 15.8699 15.4093 15.8699 15.1342H11.3553L11.4921 14.5838C11.7657 13.3456 11.6289 12.2449 11.2185 11.4194C10.9448 10.7315 10.6712 10.1811 10.124 9.7684C9.71358 9.35564 9.02954 9.08048 8.48231 8.94289C7.66146 8.80531 6.84061 8.94289 5.88296 9.21806C4.10446 10.0436 2.87319 11.4194 2.32596 12.9328C2.05234 13.4832 2.05234 14.1711 2.05234 14.7214C2.05234 15.2718 2.46276 15.6845 2.87319 16.0973C3.69403 16.7852 5.06211 17.0603 7.38785 16.9228L8.20869 16.7852L7.79827 17.4731C7.25104 18.4362 6.567 19.5369 5.74615 20.3624Z" fill="#056979"/>
<path d="M8.61888 15.1341C5.60911 15.4093 4.51465 14.7214 4.51465 13.7583C4.51465 13.0704 5.19869 12.1073 6.01953 11.557C6.97719 11.0066 7.93484 10.7315 8.75569 11.0066C9.71335 11.4194 10.1238 12.5201 9.16611 14.859L9.02931 15.1341H8.61888ZM5.4723 13.6207C5.4723 14.0335 6.29315 14.3086 8.34527 14.1711C8.8925 12.6576 8.75569 11.9697 8.34527 11.8321C7.93484 11.6946 7.2508 11.9697 6.56677 12.3825C5.88273 12.7952 5.4723 13.3456 5.4723 13.6207Z" fill="#056979"/>
<path d="M19.0166 9.35566C19.8375 10.0436 20.5215 10.7315 21.2055 11.557C22.0264 12.3825 22.5736 13.3456 23.1208 14.4463L23.5313 15.1342H22.7104C20.5215 14.9966 19.0166 15.2718 18.1958 15.9597C17.7853 16.2349 17.5117 16.7852 17.3749 17.3355C17.2381 17.8859 17.3749 18.5738 17.6485 19.1241C18.1958 20.5 19.5638 22.0134 21.3423 22.7013C22.0264 22.9765 22.7104 23.114 23.3945 23.114C24.0785 23.114 24.7625 22.8389 25.3098 22.4261C25.857 22.0134 26.2674 21.3255 26.541 20.6375C26.8147 19.812 26.9515 19.1241 26.8147 18.2986C26.8147 18.161 26.8147 18.0234 26.8147 17.8859C26.8147 17.7483 26.8147 17.6107 26.8147 17.4731V16.9228H29.5508C29.8244 16.51 30.098 16.2349 30.2349 15.8221C30.3717 15.5469 30.5085 15.4093 30.6453 15.1342H26.4042L26.2674 14.859C25.9938 13.8959 25.5834 13.0704 25.173 12.2449C24.6257 11.2818 24.0785 10.4563 23.5313 9.76841C21.616 7.42948 21.2055 7.70465 19.5638 9.08049C19.427 9.08049 19.1534 9.21807 19.0166 9.35566ZM20.5215 12.1073C19.8375 11.2818 19.0166 10.4563 18.059 9.63083L17.6485 9.21807L18.059 8.80532C18.4694 8.53015 18.743 8.25499 19.0166 7.97982C21.3423 6.05364 21.7528 5.77848 24.3521 8.80532C25.0362 9.63083 25.5834 10.5939 26.1306 11.4194C26.541 12.2449 26.9515 13.0704 27.2251 13.8959H32.4238L32.0134 14.5838C31.7397 14.9966 31.4661 15.5469 31.1925 15.9597C30.9189 16.3724 30.6453 16.7852 30.2349 17.3355L30.098 17.7483H27.9091C27.9091 17.8859 27.9091 18.0234 27.9091 18.161C27.9091 19.1241 27.9091 20.0872 27.4987 20.9127C27.2251 21.7382 26.6778 22.5637 25.9938 23.114C25.3098 23.6644 24.3521 23.9396 23.5313 23.9396C22.7104 23.9396 21.8896 23.802 21.0687 23.5268C19.0166 22.7013 17.5117 21.0503 16.9645 19.3993C16.6909 18.7114 16.5541 17.8859 16.6909 17.1979C16.8277 16.3724 17.2381 15.8221 17.7853 15.2718C18.6062 14.5838 19.9743 14.1711 22.0264 14.1711C21.4792 13.3456 20.9319 12.7953 20.5215 12.1073ZM23.8049 17.6107C21.7528 17.4731 20.9319 17.7483 20.9319 18.161C20.9319 18.5738 21.3423 19.1241 22.0264 19.5369C22.7104 19.9496 23.3945 20.2248 23.8049 20.0872C24.2153 19.812 24.3521 19.2617 23.8049 17.6107ZM19.9743 18.161C20.1111 17.1979 21.0687 16.51 24.0785 16.7852H24.3521L24.4889 17.0604C25.4466 19.3993 25.0362 20.5 24.0785 20.9127C23.3945 21.1879 22.3 20.9127 21.3423 20.3624C20.5215 19.6744 19.8375 18.8489 19.9743 18.161Z" fill="#056979"/>
<path d="M13.1336 11.4195L15.5961 8.94299L16.417 9.49333C17.6482 10.3188 18.3323 10.7316 18.3323 11.4195C18.3323 11.9698 17.785 12.3826 16.9642 13.2081C16.6906 13.4833 16.417 13.6208 16.0065 14.0336L15.5961 14.4463L15.3225 13.7584C15.0489 13.3457 14.7753 13.0705 14.5016 12.7953C14.0912 12.5202 13.6808 12.245 13.2704 12.1074L12.7231 11.8323L13.1336 11.4195ZM15.7329 10.1812L14.228 11.5571C14.5016 11.6947 14.7753 11.8323 15.0489 12.1074C15.3225 12.3826 15.5961 12.5202 15.7329 12.7953C15.8697 12.6578 16.1433 12.5202 16.2801 12.3826C16.9642 11.6947 17.3746 11.4195 17.3746 11.2819C17.3746 11.1443 16.9642 10.8692 15.7329 10.1812Z" fill="#056979"/>
<path d="M28.3193 22.4261L29.961 23.6644C30.9187 24.3523 31.4659 23.6644 32.834 22.151C32.9708 22.0134 32.9708 21.8758 33.1076 21.7382C34.3389 20.2248 35.5702 17.7483 35.9806 15.4094C36.391 13.3456 36.2542 11.4194 35.2965 10.0436C34.7493 12.5201 33.7916 14.859 32.5604 17.0604C31.4659 19.1241 30.0978 20.9127 28.3193 22.4261ZM29.4138 24.4899L26.8145 22.4261L27.3617 22.0134C29.277 20.5 30.7819 18.7114 31.8763 16.6476C33.2444 14.3087 34.0653 11.6946 34.6125 9.0805L34.7493 8.39258L35.2965 8.80533L35.4333 8.94291C37.2118 10.4563 37.3487 12.9328 36.9382 15.5469C36.391 18.0235 35.1597 20.6375 33.9285 22.2886C33.7916 22.4261 33.6548 22.5637 33.6548 22.7013C31.8763 24.9026 31.0555 25.7281 29.4138 24.4899Z" fill="#056979"/>
<path d="M32.287 5.64094L34.7495 3.16443L35.5704 3.71476C36.9384 4.54027 37.4857 4.95302 37.4857 5.64094C37.4857 6.19127 36.9384 6.60403 36.1176 7.42953C35.844 7.56711 35.5704 7.84228 35.1599 8.25503L34.7495 8.66778L34.4759 8.25503C34.2023 7.84228 33.9287 7.56711 33.6551 7.29195C33.2446 6.87919 32.8342 6.60403 32.4238 6.46644L31.7397 6.19127L32.287 5.64094ZM34.8863 4.40268L33.3814 5.91611C33.6551 6.05369 33.9287 6.19127 34.2023 6.46644C34.4759 6.74161 34.7495 6.87919 34.8863 7.15436C35.0231 7.01678 35.2967 6.87919 35.4336 6.74161C36.1176 6.05369 36.528 5.77852 36.528 5.64094C36.528 5.50336 36.1176 5.22819 34.8863 4.40268Z" fill="#056979"/>
<path d="M23.8048 25.3154L25.4465 23.802L26.2674 24.3523C27.6355 25.1778 28.1827 25.5906 28.1827 26.2785C28.1827 26.8288 27.6355 27.2416 26.8146 28.0671C26.541 28.3423 26.2674 28.4799 25.8569 28.8926L25.4465 29.3054L25.1729 28.8926C24.8993 28.6174 24.7625 28.2047 24.3521 27.9295C24.0784 27.7919 23.8048 27.5168 23.5312 27.3792C23.3944 27.5168 23.1208 27.7919 22.7104 28.0671C22.4368 28.3423 22.1631 28.4799 21.7527 28.8926L21.3423 29.3054L21.0687 28.8926C20.7951 28.4799 20.5214 28.2047 20.2478 27.9295C19.8374 27.6544 19.427 27.3792 19.0166 27.2416L18.3325 26.9664L21.3423 24.0772L22.1631 24.6275C22.984 24.7651 23.3944 25.0403 23.8048 25.3154ZM25.4465 25.0403L23.9416 26.4161C24.2153 26.5537 24.6257 26.8288 24.8993 27.104C25.1729 27.2416 25.3097 27.5168 25.5833 27.7919L26.1306 27.3792C26.8146 26.6913 27.225 26.4161 27.225 26.2785C27.0882 26.0033 26.6778 25.7282 25.4465 25.0403ZM23.1208 26.4161L23.2576 26.1409C23.2576 26.0033 22.7104 25.5906 21.7527 25.0403L21.6159 24.9027L20.111 26.2785C20.3846 26.4161 20.6583 26.5537 20.9319 26.8288C21.2055 27.104 21.4791 27.2416 21.6159 27.5168C21.7527 27.3792 22.0263 27.2416 22.1631 27.104C22.4368 26.9664 22.8472 26.6913 23.1208 26.4161Z" fill="#056979"/>
</svg>
